<?xml version="1.0" encoding="UTF-8" standalone="no"?>
<!-- Created with Inkscape (http://www.inkscape.org/) -->

<svg
   width="528.72919mm"
   height="548.80225mm"
   viewBox="0 0 528.72917 548.80224"
   version="1.1"
   id="svg1"
   xml:space="preserve"
   sodipodi:docname="back.svg"
   inkscape:version="1.3 (0e150ed, 2023-07-21)"
   xmlns:inkscape="http://www.inkscape.org/namespaces/inkscape"
   xmlns:sodipodi="http://sodipodi.sourceforge.net/DTD/sodipodi-0.dtd"
   xmlns="http://www.w3.org/2000/svg"
   xmlns:svg="http://www.w3.org/2000/svg"><sodipodi:namedview
     id="namedview1"
     pagecolor="#505050"
     bordercolor="#ffffff"
     borderopacity="1"
     inkscape:showpageshadow="0"
     inkscape:pageopacity="0"
     inkscape:pagecheckerboard="1"
     inkscape:deskcolor="#d1d1d1"
     inkscape:document-units="mm"
     inkscape:zoom="0.38832102"
     inkscape:cx="999.17331"
     inkscape:cy="1036.5136"
     inkscape:window-width="1424"
     inkscape:window-height="1212"
     inkscape:window-x="2240"
     inkscape:window-y="25"
     inkscape:window-maximized="0"
     inkscape:current-layer="g1"><inkscape:page
       x="-7.7746512e-07"
       y="-2.057274e-07"
       width="528.72919"
       height="548.80225"
       id="page3"
       margin="0"
       bleed="0"
       inkscape:export-filename="back.png"
       inkscape:export-xdpi="4.8039713"
       inkscape:export-ydpi="4.8039713" /></sodipodi:namedview><defs
     id="defs1" /><g
     id="g1"
     inkscape:groupmode="layer"
     inkscape:label="1"
     transform="matrix(0.26458333,0,0,0.26458334,-581.11672,-11.433542)"><path
       id="path4"
       d="M 4194.6932,2117.4264 H 2196.3466 V 43.213386 H 4194.6932 V 2117.4264"
       style="fill:#2f3833;fill-opacity:1;fill-rule:nonzero;stroke:none;stroke-width:0.133333"
       inkscape:export-filename="path4.png"
       inkscape:export-xdpi="96"
       inkscape:export-ydpi="96" /><path
       id="path6"
       d="m 3195.4666,346.58671 c 0.013,0 0.027,0 0.027,0 2.1466,0 3.9066,-1.76 3.92,-3.90666 0.08,-20.52 0.08,-41.49334 0,-62.34667 -0.013,-2.16 -1.7734,-3.90667 -3.9467,-3.90667 -2.16,0 -3.9067,1.77334 -3.9067,3.93334 0.093,20.84 0.093,41.8 0,62.28 0,2.16 1.7467,3.93333 3.9067,3.94666"
       style="fill:#aa7959;fill-opacity:1;fill-rule:nonzero;stroke:none;stroke-width:0.133333" /><path
       id="path7"
       d="m 3103.6133,351.02671 v 0 c 0.3333,1.89334 1.9466,3.26667 3.8666,3.26667 0.2134,0 0.44,-0.0267 0.6667,-0.0667 2.1333,-0.36 3.5733,-2.4 3.2,-4.53333 -3.4933,-20.29333 -7.1333,-40.94667 -10.8267,-61.38667 -0.1866,-1.04 -0.76,-1.93333 -1.6133,-2.53333 -0.8667,-0.6 -1.9067,-0.82667 -2.9467,-0.64 -2.12,0.38667 -3.5466,2.42667 -3.16,4.56 3.6934,20.46667 7.3334,41.10667 10.8134,61.33333"
       style="fill:#aa7959;fill-opacity:1;fill-rule:nonzero;stroke:none;stroke-width:0.133333" /><path
       id="path8"
       d="m 3018.4533,374.56004 c 0.56,1.56 2.0533,2.6 3.6933,2.6 0.4533,0 0.9067,-0.08 1.3333,-0.24 0.9867,-0.34666 1.7734,-1.06666 2.2267,-2.01333 0.44,-0.94667 0.4933,-2.01333 0.1333,-3 -6.9466,-19.36 -14.1333,-39.08 -21.32,-58.58666 -0.36,-0.98667 -1.08,-1.76 -2.04,-2.2 -0.9466,-0.44 -2.0133,-0.48 -3,-0.12 -0.9866,0.36 -1.76,1.08 -2.2,2.04 -0.44,0.94666 -0.48,2.01333 -0.12,3 7.1867,19.50666 14.36,39.2 21.2934,58.51999"
       style="fill:#aa7959;fill-opacity:1;fill-rule:nonzero;stroke:none;stroke-width:0.133333" /><path
       id="path9"
       d="m 2938.6799,412.52004 c 0.6934,1.22667 2,1.97334 3.4134,1.97334 0.68,0 1.3466,-0.17334 1.9466,-0.50667 1.8667,-1.08 2.5334,-3.48 1.4534,-5.36 -10.16,-17.77333 -20.6534,-35.93333 -31.1734,-53.98666 -0.52,-0.90667 -1.3733,-1.56 -2.3866,-1.82667 -1.0134,-0.26667 -2.0667,-0.12 -2.9734,0.41333 -0.9066,0.52 -1.56,1.37334 -1.8266,2.38667 -0.2667,1.01333 -0.12,2.06667 0.4133,2.97333 10.5467,18.12 21.0267,36.26667 31.1333,53.93333"
       style="fill:#aa7959;fill-opacity:1;fill-rule:nonzero;stroke:none;stroke-width:0.133333" /><path
       id="path10"
       d="m 2866.7066,463.76004 c 0.7467,0.89334 1.8533,1.41334 3.0133,1.41334 0.92,0 1.8134,-0.32 2.52,-0.90667 1.6534,-1.38667 1.88,-3.86667 0.5067,-5.52 -13.1467,-15.8 -26.6267,-31.86667 -40.08,-47.76 -0.68,-0.8 -1.6267,-1.29333 -2.6667,-1.38667 -1.04,-0.08 -2.0666,0.24 -2.8666,0.92 -0.8,0.68 -1.28,1.62667 -1.3734,2.66667 -0.093,1.05333 0.24,2.06667 0.92,2.86667 13.4267,15.88 26.9067,31.93333 40.0267,47.70666"
       style="fill:#aa7959;fill-opacity:1;fill-rule:nonzero;stroke:none;stroke-width:0.133333" /><path
       id="path11"
       d="m 3158.6533,823.61337 c -123.4134,-71.24 -246.5067,-142.29333 -377.1867,-217.69333 -1.88,-1.08 -4.28,-0.44 -5.36,1.44 -1.0933,1.86667 -0.44,4.28 1.4267,5.36 130.6933,75.4 253.7733,146.44 377.2,217.69333 -133.96,-48.76 -267.52,-97.34667 -409.28,-148.89333 -2.0267,-0.73334 -4.28,0.32 -5.0267,2.34666 -0.7333,2.02667 0.32,4.29334 2.3467,5.02667 141.76,51.56 275.3066,100.14666 409.2666,148.892 -140.4266,-24.75867 -280.3866,-49.412 -428.9066,-75.55867 -2.1467,-0.37333 -4.1734,1.05333 -4.5467,3.18667 -0.1867,1.02666 0.053,2.06666 0.6533,2.92 0.6,0.86666 1.4934,1.44 2.5334,1.62666 148.52,26.14667 288.48,50.8 428.8933,75.55334 -142.52,0.005 -284.6667,0.0267 -435.5067,0.0653 -2.16,0 -3.92,1.76133 -3.92,3.924 0,2.164 1.76,3.924 3.92,3.924 156.2267,-0.04 303.0934,-0.0613 450.7467,-0.0653 h 14.92 5.0133 2.5467 1.56 1.0667 0.7866 0.6 0.56 0.4134 0.36 0.3066 0.2934 0.2533 0.2533 0.2267 0.2267 0.4533 0.2267 0.24 0.24 0.2666 0.28 0.3067 0.36 0.48 0.4933 0.6 0.7867 1.0667 l 1.56,-10e-4 h 2.5466 5.0267 14.9067 c 149.6933,10e-4 301.5733,0.02 466.1733,0.056 2.1733,0 3.9333,-1.76 3.9333,-3.924 0,-2.16266 -1.76,-3.92266 -3.9333,-3.924 -159.04,-0.0347 -306.16,-0.0533 -450.9333,-0.056 142.6399,-25.152 287.5466,-50.68533 444.0933,-78.24533 1.0266,-0.18667 1.9333,-0.76 2.5333,-1.61333 0.6,-0.86667 0.8267,-1.90667 0.64,-2.93334 -0.3733,-2.13333 -2.4,-3.55999 -4.5333,-3.18666 -156.5467,27.57333 -301.4667,53.10666 -444.1067,78.252 136.08,-49.532 274.3467,-99.83867 423.76,-154.172 0.9867,-0.36 1.7733,-1.08 2.2133,-2.02667 0.44,-0.96 0.4934,-2.02666 0.1334,-3 -0.36,-0.98666 -1.08,-1.77333 -2.0267,-2.22666 -0.9467,-0.44 -2.0133,-0.48 -3,-0.13334 -149.4133,54.34667 -287.6933,104.65333 -423.76,154.184 125.3333,-72.35733 252.7733,-145.91733 390.5333,-225.41066 0.92,-0.53333 1.56,-1.37333 1.84,-2.38667 0.2667,-1.01333 0.1334,-2.06666 -0.4,-2.97333 -0.52,-0.92 -1.36,-1.56 -2.3733,-1.84 -1.0133,-0.26667 -2.08,-0.13333 -2.9867,0.4 -137.76,79.49333 -265.2133,153.05333 -390.5466,225.41333 110.9066,-93.05333 223.64,-187.62667 345.4666,-289.81333 1.6534,-1.38667 1.88,-3.86667 0.48,-5.52 -0.6666,-0.8 -1.6133,-1.29333 -2.6533,-1.38667 -1.04,-0.0933 -2.0667,0.22667 -2.8667,0.89334 -121.84,102.18666 -234.5733,196.75999 -345.4799,289.82666 93.24,-111.12 187.8266,-223.81333 289.8933,-345.39999 0.68,-0.8 1,-1.82667 0.9066,-2.86667 -0.093,-1.04 -0.5866,-1.98667 -1.3866,-2.66667 -0.8,-0.66666 -1.8134,-0.98666 -2.8667,-0.90666 -1.04,0.0933 -1.9867,0.58666 -2.6533,1.38666 -102.08,121.6 -196.6667,234.29333 -289.9067,345.41333 72.48,-125.54667 146.0667,-252.96 225.52,-390.49333 0.52,-0.90666 0.6533,-1.96 0.3867,-2.97333 -0.2667,-1.01333 -0.92,-1.86667 -1.8267,-2.38667 -1.88,-1.08 -4.28,-0.44 -5.36,1.42667 -79.4533,137.54666 -153.0266,264.94666 -225.52,390.50666 49.52,-136.06667 99.8667,-274.32 154.28,-423.71999 0.36,-0.98667 0.3067,-2.05334 -0.1333,-3 -0.44,-0.94667 -1.2267,-1.68 -2.2134,-2.02667 -2.0266,-0.74667 -4.28,0.30667 -5.0266,2.33333 -54.4133,149.41333 -104.76,287.68 -154.28,423.73333 25.0933,-142.36 50.6667,-287.28 78.36,-444.07999 0.1733,-1.02667 -0.053,-2.06667 -0.6533,-2.92 -0.6,-0.86667 -1.5067,-1.44 -2.5334,-1.62667 -2.1466,-0.36 -4.1733,1.06667 -4.5466,3.18667 -27.6667,156.66666 -53.2134,301.47999 -78.2934,443.71999 -0.013,-142.46667 -0.027,-284.46666 -0.067,-435.14666 0,-1.05333 -0.4134,-2.04 -1.1467,-2.77333 -0.7467,-0.74667 -1.7333,-1.14667 -2.7733,-1.14667 v 0 c -2.1734,0 -3.9334,1.76 -3.9334,3.92 0.04,150.81333 0.067,292.91999 0.067,435.50666 -24.7867,-140.57333 -49.4933,-280.52 -75.6933,-428.87999 -0.3734,-2.13334 -2.4,-3.56 -4.5467,-3.18667 -1.0267,0.18667 -1.92,0.76 -2.5333,1.61333 -0.6,0.86667 -0.8267,1.90667 -0.64,2.93334 26.2,148.37333 50.8933,288.30666 75.6933,428.87999 -48.7467,-133.90667 -97.3733,-267.45333 -149.0267,-409.22666 -0.36,-0.98667 -1.08,-1.77333 -2.0266,-2.21333 -0.9467,-0.44 -2.0134,-0.49334 -3,-0.13334 -0.9867,0.36 -1.7734,1.08 -2.2134,2.02667 -0.44,0.96 -0.4933,2.02667 -0.1333,3 51.64,141.77333 100.28,275.31999 149.0133,409.22666 -71.32,-123.53333 -142.4,-246.6 -217.8133,-377.13333 -1.08,-1.88 -3.48,-2.52 -5.36,-1.44 -0.9067,0.52 -1.56,1.37334 -1.8267,2.38667 -0.2666,1.01333 -0.1333,2.06667 0.4,2.97333 75.4,130.54667 146.48,253.6 217.8,377.13333 -91.6933,-109.28 -183.0533,-218.12 -279.9866,-333.58666 -1.4,-1.65333 -3.88,-1.86667 -5.5334,-0.48 -0.8,0.68 -1.2933,1.61333 -1.3866,2.66667 -0.093,1.04 0.2266,2.05333 0.9066,2.86666 96.9334,115.45333 188.2934,224.29333 279.9867,333.57333 -109.1867,-91.61333 -218.08,-182.96 -333.6667,-279.89333 -1.6533,-1.38667 -4.1333,-1.17333 -5.52,0.48 -1.4,1.65333 -1.1733,4.13333 0.48,5.53333 115.5867,96.93333 224.4667,188.26667 333.6534,279.88"
       style="fill:#aa7959;fill-opacity:1;fill-rule:nonzero;stroke:none;stroke-width:0.133333" /><path
       id="path12"
       d="m 2804.7199,526.72004 c 0.72,0.6 1.6134,0.93333 2.5334,0.93333 1.16,0 2.2533,-0.50666 3,-1.4 0.68,-0.8 1,-1.81333 0.92,-2.85333 -0.093,-1.04 -0.5734,-2 -1.3734,-2.66667 -15.64,-13.24 -31.7066,-26.72 -47.76,-40.07999 -1.6666,-1.38667 -4.1466,-1.16 -5.5333,0.50666 -0.6667,0.8 -0.9867,1.82667 -0.8933,2.86667 0.1066,1.04 0.6,1.98667 1.4,2.65333 16.08,13.38667 32.1333,26.85333 47.7066,40.04"
       style="fill:#aa7959;fill-opacity:1;fill-rule:nonzero;stroke:none;stroke-width:0.133333" /><path
       id="path13"
       d="m 2700.6799,568.34671 c 18.1334,10.36 36.28,20.84 53.9334,31.13333 0.6,0.34667 1.2933,0.53333 1.9733,0.53333 1.4,0 2.6933,-0.74666 3.4,-1.94666 1.08,-1.86667 0.4533,-4.28 -1.4133,-5.36 -17.72,-10.33334 -35.8934,-20.82667 -54,-31.17334 -0.9067,-0.52 -1.96,-0.65333 -2.9734,-0.38666 -1.0133,0.28 -1.8533,0.93333 -2.3733,1.84 -0.52,0.90666 -0.6667,1.97333 -0.3867,2.98666 0.28,1 0.9334,1.85334 1.84,2.37334"
       style="fill:#aa7959;fill-opacity:1;fill-rule:nonzero;stroke:none;stroke-width:0.133333" /><path
       id="path14"
       d="m 2659.3866,658.5467 c 19.6267,7.05334 39.32,14.21334 58.52,21.29334 0.44,0.16 0.8933,0.24 1.36,0.24 1.64,0 3.12,-1.02667 3.68,-2.56 0.36,-0.98667 0.32,-2.05334 -0.12,-3 -0.44,-0.96 -1.2267,-1.68 -2.2,-2.04 -19.1733,-7.06667 -38.88,-14.24 -58.5867,-21.32 -0.9866,-0.36 -2.0533,-0.30667 -3,0.13333 -0.9466,0.45333 -1.6666,1.24 -2.0266,2.22667 -0.3467,0.98666 -0.3067,2.05333 0.1466,3 0.44,0.94666 1.24,1.66666 2.2267,2.02666"
       style="fill:#aa7959;fill-opacity:1;fill-rule:nonzero;stroke:none;stroke-width:0.133333" /><path
       id="path15"
       d="m 2634.3733,754.5467 c 20.6,3.54667 41.24,7.17333 61.3333,10.81333 0.24,0.04 0.4667,0.0533 0.7067,0.0533 1.8933,0 3.52,-1.34667 3.8533,-3.22667 0.1867,-1.02667 -0.04,-2.06666 -0.64,-2.93333 -0.6,-0.85333 -1.4933,-1.44 -2.52,-1.61333 -20.1067,-3.64 -40.7733,-7.28 -61.4,-10.82667 -1.0267,-0.18667 -2.0667,0.0533 -2.9333,0.65333 -0.8534,0.61334 -1.4267,1.50667 -1.6,2.54667 -0.3734,2.13333 1.0666,4.16 3.2,4.53333"
       style="fill:#aa7959;fill-opacity:1;fill-rule:nonzero;stroke:none;stroke-width:0.133333" /><path
       id="path16"
       d="m 3725.7599,849.4947 c 0,2.164 1.76,3.924 3.92,3.924 l 34.96,0.008 c 2.1733,0 3.9333,-1.76 3.9333,-3.924 0,-2.16267 -1.76,-3.92267 -3.9333,-3.924 l -34.96,-0.008 c -2.16,0 -3.92,1.76 -3.92,3.924"
       style="fill:#aa7959;fill-opacity:1;fill-rule:nonzero;stroke:none;stroke-width:0.133333" /><path
       id="path17"
       d="m 2626.3999,853.4267 h 0.013 c 20.84,-0.0853 41.8,-0.0853 62.2933,0 2.16,0 3.92,-1.752 3.9333,-3.908 0,-2.164 -1.7466,-3.932 -3.92,-3.94 -20.5066,-0.0853 -41.48,-0.0853 -62.3333,0 -2.1733,0.008 -3.92,1.776 -3.92,3.94 0.013,2.15467 1.7733,3.908 3.9333,3.908"
       style="fill:#aa7959;fill-opacity:1;fill-rule:nonzero;stroke:none;stroke-width:0.133333" /><path
       id="path18"
       d="m 3718.3466,754.49337 c -0.6,0.85333 -0.8267,1.89333 -0.64,2.92 0.3333,1.88 1.9466,3.25333 3.8533,3.25333 0.2267,0 0.4533,-0.0267 0.6933,-0.0667 l 34.4267,-6.06667 c 1.04,-0.17333 1.9333,-0.74667 2.5333,-1.61333 0.6134,-0.85334 0.84,-1.89334 0.6534,-2.92 -0.3734,-2.13334 -2.4134,-3.56 -4.5467,-3.18667 l -34.44,6.06667 c -1.0267,0.17333 -1.92,0.74666 -2.5333,1.61333"
       style="fill:#aa7959;fill-opacity:1;fill-rule:nonzero;stroke:none;stroke-width:0.133333" /><path
       id="path19"
       d="m 3697.4666,670.72004 c 0.4666,0 0.92,-0.08 1.3466,-0.22667 l 32.8667,-11.96 c 0.9867,-0.36 1.7733,-1.08 2.2133,-2.02667 0.44,-0.94666 0.4934,-2.01333 0.1334,-3 -0.7467,-2.02666 -3,-3.08 -5.0267,-2.34666 l -32.8667,11.96 c -2.04,0.73333 -3.08,2.98666 -2.3466,5.02666 0.56,1.54667 2.04,2.57334 3.68,2.57334"
       style="fill:#aa7959;fill-opacity:1;fill-rule:nonzero;stroke:none;stroke-width:0.133333" /><path
       id="path20"
       d="m 3658.1332,586.33337 c 0.68,0 1.36,-0.17333 1.96,-0.52 l 30.28,-17.48 c 0.9067,-0.52 1.56,-1.37333 1.8267,-2.38666 0.28,-1 0.1333,-2.06667 -0.3867,-2.97334 -1.08,-1.88 -3.4933,-2.52 -5.36,-1.44 l -30.2933,17.48 c -0.9067,0.52 -1.5467,1.37334 -1.8267,2.38667 -0.2666,1.01333 -0.1333,2.06667 0.4,2.97333 0.6934,1.21334 2,1.96 3.4,1.96"
       style="fill:#aa7959;fill-opacity:1;fill-rule:nonzero;stroke:none;stroke-width:0.133333" /><path
       id="path21"
       d="m 3604.7199,510.06671 c 0.9333,0 1.8267,-0.33334 2.52,-0.92 l 26.8,-22.46667 c 1.6533,-1.4 1.88,-3.88 0.48,-5.53333 -1.3867,-1.65333 -3.8667,-1.88 -5.52,-0.48 l -26.8,22.46666 c -1.6533,1.38667 -1.8667,3.86667 -0.48,5.53334 0.7467,0.89333 1.84,1.4 3,1.4"
       style="fill:#aa7959;fill-opacity:1;fill-rule:nonzero;stroke:none;stroke-width:0.133333" /><path
       id="path22"
       d="m 3538.8932,444.22671 c 1.16,0 2.2534,-0.52 3,-1.4 l 22.48,-26.78667 c 0.68,-0.8 1,-1.81333 0.9067,-2.86666 -0.093,-1.04 -0.5867,-1.98667 -1.3867,-2.66667 -1.6533,-1.38667 -4.1333,-1.17333 -5.52,0.48 l -22.4933,26.78667 c -0.6667,0.8 -0.9867,1.82666 -0.8933,2.86666 0.08,1.04 0.5733,1.98667 1.3866,2.66667 0.6934,0.58667 1.6,0.92 2.52,0.92"
       style="fill:#aa7959;fill-opacity:1;fill-rule:nonzero;stroke:none;stroke-width:0.133333" /><path
       id="path23"
       d="m 3460.6532,390.28004 c 0,0.0133 0,0.0133 0,0.0133 0.6,0.33333 1.28,0.52 1.96,0.52 1.4,0 2.7067,-0.74667 3.4,-1.96 l 17.4934,-30.28 c 0.5333,-0.90667 0.6666,-1.96 0.4,-2.97333 -0.28,-1.01334 -0.92,-1.86667 -1.8267,-2.38667 -1.88,-1.08 -4.28,-0.44 -5.36,1.44 L 3459.2266,384.92 c -0.5334,0.90667 -0.6667,1.97334 -0.4,2.98667 0.28,1.01333 0.92,1.85333 1.8266,2.37333"
       style="fill:#aa7959;fill-opacity:1;fill-rule:nonzero;stroke:none;stroke-width:0.133333" /><path
       id="path24"
       d="m 3376.8932,351.22671 c 0.44,0.16 0.88,0.22667 1.3467,0.22667 1.64,0 3.12,-1.02667 3.68,-2.57333 l 11.9733,-32.85334 c 0.36,-0.98666 0.3067,-2.05333 -0.1333,-3 -0.44,-0.96 -1.2267,-1.68 -2.2133,-2.04 -0.9867,-0.36 -2.0534,-0.30666 -3,0.13334 -0.9467,0.44 -1.6667,1.22666 -2.0267,2.21333 l -11.9733,32.85333 c -0.36,0.98667 -0.3067,2.05334 0.1333,3 0.44,0.96 1.2267,1.68 2.2133,2.04"
       style="fill:#aa7959;fill-opacity:1;fill-rule:nonzero;stroke:none;stroke-width:0.133333" /><path
       id="path25"
       d="m 3287.6133,327.29338 h 0.013 c 0.2267,0.04 0.4533,0.0667 0.68,0.0667 1.9067,0 3.5333,-1.37334 3.8533,-3.24 l 6.08,-34.44 c 0.1867,-1.02667 -0.04,-2.08 -0.64,-2.93334 -0.6,-0.85333 -1.5066,-1.42666 -2.5333,-1.61333 -2.1467,-0.37333 -4.1733,1.05333 -4.5467,3.18667 l -6.08,34.42666 c -0.3733,2.13334 1.0534,4.17334 3.1734,4.54667"
       style="fill:#aa7959;fill-opacity:1;fill-rule:nonzero;stroke:none;stroke-width:0.133333" /><path
       id="path26"
       d="m 3198.3466,1815.2133 c -0.7467,-0.7333 -1.7333,-1.1466 -2.7733,-1.16 h -0.013 c -2.16,0 -3.92,1.76 -3.9333,3.9067 -0.08,20.52 -0.08,41.4933 0,62.3467 0.013,2.16 1.7733,3.9066 3.9467,3.9066 2.16,0 3.92,-1.7733 3.9066,-3.9333 -0.093,-20.84 -0.093,-41.8 0,-62.28 0,-1.0533 -0.4,-2.04 -1.1333,-2.7867"
       style="fill:#aa7959;fill-opacity:1;fill-rule:nonzero;stroke:none;stroke-width:0.133333" /><path
       id="path27"
       d="m 3287.4266,1809.6133 c -0.36,-2.1066 -2.4133,-3.5733 -4.5333,-3.2 -1.0267,0.1734 -1.9334,0.7467 -2.5334,1.6 -0.6133,0.8534 -0.84,1.8934 -0.6666,2.9334 3.48,20.24 7.12,40.8933 10.8266,61.4 0.1867,1.0266 0.76,1.92 1.6267,2.52 0.6667,0.4666 1.44,0.7066 2.2267,0.7066 0.24,0 0.4666,-0.027 0.7066,-0.067 2.1334,-0.3867 3.5467,-2.4267 3.16,-4.56 -3.6933,-20.4534 -7.3333,-41.0934 -10.8133,-61.3334"
       style="fill:#aa7959;fill-opacity:1;fill-rule:nonzero;stroke:none;stroke-width:0.133333" /><path
       id="path28"
       d="m 3372.5866,1786.08 c -0.56,-1.56 -2.04,-2.6 -3.6934,-2.6 -0.4533,0 -0.8933,0.08 -1.3333,0.24 -0.9867,0.3467 -1.7733,1.0667 -2.2133,2.0133 -0.4534,0.9467 -0.5067,2.0134 -0.1467,3 6.9467,19.32 14.12,39.04 21.32,58.5867 0.36,0.9867 1.0933,1.76 2.04,2.2 0.52,0.2533 1.08,0.3733 1.64,0.3733 0.4667,0 0.92,-0.08 1.36,-0.2533 0.9867,-0.36 1.7733,-1.08 2.2,-2.04 0.44,-0.9467 0.4933,-2.0133 0.12,-3 -7.1867,-19.5067 -14.36,-39.2 -21.2933,-58.52"
       style="fill:#aa7959;fill-opacity:1;fill-rule:nonzero;stroke:none;stroke-width:0.133333" /><path
       id="path29"
       d="m 3452.3599,1748.12 c -0.6933,-1.2267 -2,-1.9733 -3.4133,-1.9733 -0.68,0 -1.3467,0.1733 -1.9334,0.5066 -0.92,0.52 -1.5733,1.3734 -1.84,2.3867 -0.28,1.0133 -0.1466,2.0667 0.3734,2.9733 10.24,17.9067 20.7333,36.0667 31.1733,54 0.5333,0.8934 1.3733,1.5467 2.3867,1.8134 0.3333,0.093 0.68,0.1333 1.0133,0.1333 0.68,0 1.36,-0.1867 1.9733,-0.5333 1.8667,-1.0934 2.4934,-3.4934 1.4134,-5.3734 -10.5067,-18.0266 -20.9867,-36.1733 -31.1467,-53.9333"
       style="fill:#aa7959;fill-opacity:1;fill-rule:nonzero;stroke:none;stroke-width:0.133333" /><path
       id="path30"
       d="m 3524.3332,1696.88 c -1.3333,-1.6 -3.92,-1.84 -5.52,-0.5067 -1.6666,1.3867 -1.8933,3.8667 -0.5066,5.52 13.1066,15.76 26.5866,31.8267 40.0666,47.76 0.68,0.8 1.6267,1.2934 2.6667,1.3867 0.12,0 0.2267,0.013 0.3467,0.013 0.92,0 1.8,-0.3333 2.52,-0.9333 0.8,-0.68 1.2933,-1.6267 1.3733,-2.6667 0.093,-1.0533 -0.24,-2.0666 -0.9067,-2.8666 -13.4533,-15.8934 -26.92,-31.9467 -40.04,-47.7067"
       style="fill:#aa7959;fill-opacity:1;fill-rule:nonzero;stroke:none;stroke-width:0.133333" /><path
       id="path31"
       d="m 3232.3866,1337.0267 c 123.4133,71.24 246.5066,142.2933 377.2,217.6933 0.6,0.3467 1.2666,0.5333 1.9466,0.5333 0.3467,0 0.6934,-0.053 1.0267,-0.1466 1.0133,-0.2667 1.8533,-0.92 2.3867,-1.8267 1.08,-1.8667 0.4266,-4.28 -1.44,-5.36 -130.68,-75.4 -253.7734,-146.44 -377.1867,-217.6906 133.96,48.7573 267.5067,97.344 409.2667,148.8906 0.44,0.16 0.8933,0.24 1.3333,0.24 1.6,0 3.1067,-1 3.6933,-2.5866 0.7334,-2.0267 -0.32,-4.2934 -2.3466,-5.0267 -141.7467,-51.5467 -275.3067,-100.1333 -409.2667,-148.8907 140.4267,24.7574 280.3867,49.4107 428.9067,75.5574 0.2266,0.04 0.4533,0.067 0.68,0.067 1.8666,0 3.5333,-1.3466 3.8666,-3.24 0.1867,-1.04 -0.053,-2.08 -0.6533,-2.9333 -0.6,-0.8667 -1.4933,-1.44 -2.5333,-1.6133 -148.52,-26.16 -288.4667,-50.8134 -428.8933,-75.5667 142.5199,0 284.6666,-0.025 435.5066,-0.064 2.1733,0 3.9333,-1.7613 3.9333,-3.9253 0,-2.1627 -1.76,-3.9227 -3.9333,-3.9227 -156.2267,0.039 -303.0933,0.06 -450.7466,0.064 h -14.9067 -5.0267 -2.5466 -1.56 -1.0667 -0.7867 -0.6 -0.56 -0.4133 -0.36 -0.3067 -0.28 -0.2666 -0.24 -0.24 -0.2267 -0.4533 -0.2267 -0.2267 -0.2533 -0.2533 -0.2934 -0.3066 -0.36 -0.48 -0.4934 -0.6 -0.7866 -1.0667 -1.56 -2.5467 -5.0133 -14.92 c -149.68,0 -301.5733,-0.019 -466.1733,-0.055 -2.16,0 -3.92,1.76 -3.92,3.924 0,2.1626 1.76,3.9226 3.92,3.924 159.04,0.035 306.16,0.053 450.9333,0.056 -142.64,25.1506 -287.5467,50.684 -444.0933,78.244 -1.0267,0.1866 -1.92,0.76 -2.52,1.6133 -0.6134,0.8667 -0.84,1.9067 -0.6534,2.9333 0.3334,1.9067 2,3.24 3.8667,3.24 0.2267,0 0.4533,-0.013 0.68,-0.053 156.5467,-27.5733 301.4533,-53.1067 444.0933,-78.2507 -136.0666,49.5307 -274.3466,99.8374 -423.76,154.1707 -2.0266,0.7467 -3.08,3 -2.3466,5.04 0.5866,1.5867 2.0933,2.5733 3.6933,2.5733 0.4533,0 0.8933,-0.067 1.3333,-0.2266 149.4134,-54.3467 287.6934,-104.6534 423.76,-154.1827 -125.3333,72.356 -252.7733,145.916 -390.5333,225.4226 -1.88,1.08 -2.52,3.48 -1.44,5.36 0.52,0.9067 1.3733,1.5467 2.3867,1.8267 0.3333,0.093 0.68,0.1333 1.0133,0.1333 0.68,0 1.36,-0.1733 1.96,-0.5333 137.7733,-79.4933 265.2133,-153.0533 390.5467,-225.4133 -110.9067,93.0533 -223.64,187.6266 -345.4667,289.8133 -1.6533,1.3867 -1.8667,3.8667 -0.48,5.52 0.6667,0.8 1.6133,1.2933 2.6667,1.3867 0.1066,0.013 0.2266,0.013 0.3466,0.013 0.92,0 1.8,-0.32 2.5067,-0.9067 121.84,-102.1866 234.5733,-196.7599 345.48,-289.8266 -93.24,111.12 -187.8133,223.8133 -289.8933,345.4 -0.68,0.8 -1,1.8266 -0.9067,2.8666 0.093,1.04 0.5867,1.9867 1.3867,2.6667 0.7066,0.6 1.6,0.92 2.52,0.92 0.1066,0 0.2266,-0.013 0.3466,-0.013 1.04,-0.093 1.9867,-0.5867 2.6667,-1.3867 102.0667,-121.6 196.6533,-234.2933 289.8933,-345.4133 -72.48,125.5467 -146.0666,252.96 -225.5066,390.4933 -0.5334,0.9067 -0.6667,1.9733 -0.4,2.9867 0.28,1 0.92,1.8533 1.8266,2.3733 0.6267,0.36 1.2934,0.5333 1.96,0.5333 1.36,0 2.68,-0.7066 3.4,-1.96 79.4534,-137.5466 153.04,-264.9466 225.52,-390.5066 -49.52,136.0667 -99.8666,274.32 -154.28,423.72 -0.36,0.9866 -0.3066,2.0533 0.1334,3 0.44,0.9466 1.2266,1.68 2.2133,2.0266 0.44,0.16 0.8933,0.24 1.3467,0.24 0.56,0 1.12,-0.12 1.6533,-0.36 0.9467,-0.4533 1.6667,-1.2266 2.0267,-2.2133 54.4133,-149.4133 104.76,-287.68 154.2933,-423.7333 -25.1067,142.36 -50.68,287.28 -78.36,444.08 -0.1867,1.0266 0.04,2.0666 0.64,2.9333 0.6,0.8533 1.5067,1.4267 2.5467,1.6133 0.2266,0.04 0.44,0.053 0.6666,0.053 1.8667,0 3.5334,-1.3467 3.8667,-3.24 27.6667,-156.6667 53.2133,-301.48 78.2933,-443.72 0.013,142.4666 0.027,284.4666 0.067,435.1466 0,1.0534 0.4133,2.04 1.1467,2.7734 0.7466,0.7466 1.7333,1.1466 2.7733,1.1466 h 0.013 c 2.16,0 3.92,-1.76 3.92,-3.92 -0.04,-150.8133 -0.067,-292.92 -0.067,-435.5066 24.8,140.5733 49.4933,280.52 75.6933,428.88 0.3333,1.9066 1.9867,3.2533 3.8667,3.2533 0.2133,0 0.4533,-0.027 0.68,-0.067 1.0266,-0.1866 1.9333,-0.76 2.5333,-1.6133 0.6,-0.8533 0.8267,-1.8933 0.64,-2.9333 -26.2,-148.36 -50.8933,-288.3067 -75.68,-428.88 48.7333,133.9067 97.3733,267.4533 149.0133,409.2266 0.5733,1.6 2.08,2.5867 3.6933,2.5867 0.44,0 0.8934,-0.08 1.3334,-0.24 0.9866,-0.36 1.7733,-1.08 2.2133,-2.0267 0.44,-0.96 0.4933,-2.0133 0.1333,-3 -51.6399,-141.7733 -100.2666,-275.3199 -149.0133,-409.2266 71.3334,123.5333 142.4,246.6 217.8133,377.1333 0.72,1.2667 2.04,1.96 3.4,1.96 0.6667,0 1.3467,-0.16 1.96,-0.52 0.9067,-0.52 1.56,-1.3733 1.8267,-2.3867 0.2667,-1.0133 0.1333,-2.0666 -0.3867,-2.9733 -75.4133,-130.5467 -146.4933,-253.6 -217.8133,-377.1333 91.6934,109.28 183.0667,218.12 279.9867,333.5866 0.68,0.8 1.6266,1.2934 2.6666,1.3867 0.12,0.013 0.24,0.013 0.3467,0.013 0.92,0 1.8133,-0.32 2.52,-0.92 1.6533,-1.3866 1.88,-3.8666 0.48,-5.5333 -96.9333,-115.4533 -188.2933,-224.3066 -279.9866,-333.5733 109.1866,91.6133 218.0799,182.96 333.6666,279.8933 0.7067,0.6 1.6,0.92 2.5067,0.92 0.12,0 0.24,0 0.36,-0.013 1.04,-0.093 1.9866,-0.5867 2.6666,-1.3867 1.3867,-1.6533 1.16,-4.1333 -0.4933,-5.5333 -115.5867,-96.9334 -224.4667,-188.2667 -333.6533,-279.88"
       style="fill:#aa7959;fill-opacity:1;fill-rule:nonzero;stroke:none;stroke-width:0.133333" /><path
       id="path32"
       d="m 3586.3199,1633.92 c -1.6,-1.3467 -4.2,-1.12 -5.5333,0.4667 -0.68,0.8 -1,1.8133 -0.92,2.8533 0.093,1.0533 0.5866,2 1.3866,2.68 15.6134,13.2133 31.68,26.6933 47.7467,40.0667 0.72,0.6 1.6,0.9066 2.5067,0.9066 0.12,0 0.24,0 0.3733,-0.013 1.04,-0.093 1.9867,-0.5867 2.6533,-1.4 0.6667,-0.8 0.9867,-1.8267 0.8934,-2.8667 -0.093,-1.04 -0.5867,-1.9866 -1.4,-2.6533 -16.0667,-13.3733 -32.12,-26.84 -47.7067,-40.04"
       style="fill:#aa7959;fill-opacity:1;fill-rule:nonzero;stroke:none;stroke-width:0.133333" /><path
       id="path33"
       d="m 3690.3599,1592.2933 v 0 c -18.0533,-10.32 -36.2,-20.8 -53.9333,-31.1333 -0.6,-0.3467 -1.28,-0.5333 -1.9734,-0.5333 -1.4,0 -2.6933,0.7466 -3.4,1.9466 -1.08,1.8667 -0.4533,4.28 1.4134,5.36 17.7733,10.36 35.9333,20.8534 54,31.1734 0.6,0.3466 1.2666,0.52 1.9466,0.52 0.3467,0 0.6934,-0.04 1.0267,-0.1334 1.0133,-0.28 1.8667,-0.9333 2.3867,-1.84 1.0666,-1.88 0.4133,-4.28 -1.4667,-5.36"
       style="fill:#aa7959;fill-opacity:1;fill-rule:nonzero;stroke:none;stroke-width:0.133333" /><path
       id="path34"
       d="m 3731.6666,1502.0933 c -19.6134,-7.04 -39.3067,-14.1999 -58.5334,-21.2933 -0.44,-0.16 -0.8933,-0.24 -1.36,-0.24 -1.6266,0 -3.1066,1.0267 -3.68,2.56 -0.7466,2.0267 0.2934,4.2934 2.3334,5.04 19.32,7.1333 39.04,14.3067 58.5733,21.32 0.44,0.16 0.8933,0.24 1.3333,0.24 0.5734,0 1.1467,-0.1333 1.68,-0.3733 0.9467,-0.4534 1.6534,-1.24 2.0134,-2.2267 0.36,-0.9867 0.3066,-2.0533 -0.1467,-3 -0.44,-0.9467 -1.2267,-1.6667 -2.2133,-2.0267"
       style="fill:#aa7959;fill-opacity:1;fill-rule:nonzero;stroke:none;stroke-width:0.133333" /><path
       id="path35"
       d="m 3756.6666,1406.0934 c -20.5334,-3.5334 -41.16,-7.16 -61.3334,-10.8134 -2.1733,-0.4 -4.1733,1.0667 -4.56,3.1734 -0.3866,2.12 1.04,4.1733 3.1734,4.56 20.1733,3.64 40.8266,7.28 61.3866,10.8133 0.2267,0.04 0.4534,0.067 0.68,0.067 0.8,0 1.5867,-0.2534 2.2534,-0.72 0.8533,-0.6134 1.4266,-1.5067 1.6,-2.5467 0.1866,-1.0267 -0.053,-2.0667 -0.6534,-2.92 -0.6133,-0.8667 -1.5066,-1.4267 -2.5466,-1.6133"
       style="fill:#aa7959;fill-opacity:1;fill-rule:nonzero;stroke:none;stroke-width:0.133333" /><path
       id="path36"
       d="m 2661.3599,1313.7374 z m 3.9334,-2.5907 c 0,-2.164 -1.76,-3.924 -3.9334,-3.924 l -34.96,-0.01 c -2.1733,0 -3.9333,1.76 -3.9333,3.9227 0,2.164 1.76,3.924 3.9333,3.9253 l 34.96,0.01 c 2.1734,0 3.9334,-1.76 3.9334,-3.924"
       style="fill:#aa7959;fill-opacity:1;fill-rule:nonzero;stroke:none;stroke-width:0.133333" /><path
       id="path37"
       d="m 3764.6399,1307.2147 h -0.013 c -20.84,0.085 -41.7867,0.084 -62.2934,0 -2.16,0 -3.92,1.752 -3.92,3.908 -0.013,2.1627 1.7334,3.9307 3.9067,3.94 10.2533,0.043 20.6267,0.064 31.04,0.064 10.4133,0 20.8667,-0.021 31.3067,-0.064 2.16,-0.01 3.9066,-1.7773 3.9066,-3.94 -0.013,-2.1547 -1.7733,-3.908 -3.9333,-3.908"
       style="fill:#aa7959;fill-opacity:1;fill-rule:nonzero;stroke:none;stroke-width:0.133333" /><path
       id="path38"
       d="m 2672.6933,1406.16 c 0.6,-0.8666 0.8266,-1.9066 0.64,-2.9333 -0.36,-2.1067 -2.3067,-3.5733 -4.5334,-3.1867 l -34.44,6.0667 c -1.04,0.1733 -1.9333,0.7467 -2.5333,1.6133 -0.6,0.8534 -0.84,1.8934 -0.6533,2.9334 0.3333,1.8933 2,3.24 3.8666,3.24 0.2267,0 0.4534,-0.027 0.68,-0.067 l 34.44,-6.0533 c 1.0267,-0.1867 1.9334,-0.76 2.5334,-1.6134"
       style="fill:#aa7959;fill-opacity:1;fill-rule:nonzero;stroke:none;stroke-width:0.133333" /><path
       id="path39"
       d="m 2692.2266,1490.1467 -32.8667,11.96 c -0.9733,0.36 -1.76,1.08 -2.2133,2.0266 -0.44,0.9467 -0.48,2.0134 -0.1333,3 0.36,0.9867 1.08,1.7734 2.04,2.2134 0.52,0.2533 1.0933,0.3733 1.6533,0.3733 0.4533,0 0.9067,-0.08 1.3467,-0.24 l 32.8533,-11.9467 c 0.9867,-0.36 1.7733,-1.08 2.2133,-2.04 0.4534,-0.9466 0.4934,-2.0133 0.1334,-2.9999 -0.7067,-1.9734 -3.0267,-3.0667 -5.0267,-2.3467"
       style="fill:#aa7959;fill-opacity:1;fill-rule:nonzero;stroke:none;stroke-width:0.133333" /><path
       id="path40"
       d="m 2732.9199,1574.3067 c -0.6933,0 -1.3733,0.1733 -1.96,0.52 l -30.2933,17.48 c -0.9067,0.52 -1.56,1.3733 -1.8267,2.3866 -0.28,1.0134 -0.1333,2.0667 0.3867,2.9734 0.52,0.9066 1.3733,1.56 2.3867,1.8266 0.3333,0.093 0.68,0.1334 1.0266,0.1334 0.68,0 1.3467,-0.1734 1.9467,-0.52 l 30.2933,-17.48 c 0.9067,-0.52 1.56,-1.3734 1.8267,-2.3867 0.2667,-1.0133 0.1333,-2.0667 -0.3867,-2.9733 -0.7066,-1.2134 -2,-1.96 -3.4,-1.96"
       style="fill:#aa7959;fill-opacity:1;fill-rule:nonzero;stroke:none;stroke-width:0.133333" /><path
       id="path41"
       d="m 2783.7999,1651.4933 -26.8,22.4667 c -0.8,0.68 -1.2933,1.6267 -1.3866,2.6667 -0.093,1.04 0.2266,2.0666 0.9066,2.8666 0.7734,0.92 1.8934,1.4 3.0134,1.4 0.88,0 1.7866,-0.2933 2.52,-0.9066 l 26.7866,-22.48 c 0.8,-0.6667 1.2934,-1.6134 1.3867,-2.6667 0.093,-1.04 -0.2267,-2.0533 -0.9067,-2.8533 -1.3333,-1.6 -3.92,-1.8267 -5.52,-0.4934"
       style="fill:#aa7959;fill-opacity:1;fill-rule:nonzero;stroke:none;stroke-width:0.133333" /><path
       id="path42"
       d="m 2849.1466,1717.8267 -22.48,26.7733 c -0.68,0.8 -1,1.8267 -0.9067,2.8667 0.093,1.04 0.5867,1.9866 1.3867,2.6666 0.7333,0.6134 1.6267,0.92 2.52,0.92 1.12,0 2.24,-0.48 3.0133,-1.4 l 22.48,-26.7866 c 1.3867,-1.6534 1.1734,-4.1334 -0.48,-5.5334 -1.6,-1.3333 -4.2,-1.1066 -5.5333,0.4934"
       style="fill:#aa7959;fill-opacity:1;fill-rule:nonzero;stroke:none;stroke-width:0.133333" /><path
       id="path43"
       d="m 2930.3866,1770.36 c -0.6,-0.3467 -1.28,-0.5333 -1.96,-0.5333 -1.4,0 -2.7067,0.7466 -3.4,1.96 l -17.4933,30.28 c -0.52,0.9066 -0.6667,1.96 -0.4,2.9733 0.28,1.0133 0.92,1.8667 1.84,2.3867 0.6133,0.36 1.28,0.5333 1.9466,0.5333 1.36,0 2.68,-0.7067 3.4134,-1.9733 l 17.4933,-30.2667 c 0.52,-0.9067 0.6533,-1.9733 0.3867,-2.9867 -0.2667,-1.0133 -0.92,-1.8533 -1.8267,-2.3733"
       style="fill:#aa7959;fill-opacity:1;fill-rule:nonzero;stroke:none;stroke-width:0.133333" /><path
       id="path44"
       d="m 3014.1466,1809.4133 c -1.9867,-0.72 -4.3067,0.3734 -5.0267,2.3467 l -11.9733,32.8533 c -0.36,0.9867 -0.3067,2.0534 0.1333,3 0.44,0.96 1.2267,1.68 2.2134,2.04 0.44,0.16 0.8933,0.24 1.3466,0.24 0.56,0 1.1334,-0.1333 1.6534,-0.3733 0.9466,-0.44 1.68,-1.2267 2.0266,-2.2133 l 11.9734,-32.8534 c 0.36,-0.9866 0.3066,-2.0533 -0.1334,-3 -0.44,-0.96 -1.2266,-1.68 -2.2133,-2.04"
       style="fill:#aa7959;fill-opacity:1;fill-rule:nonzero;stroke:none;stroke-width:0.133333" /><path
       id="path45"
       d="m 3103.4266,1833.3467 c -2.16,-0.4 -4.1733,1.08 -4.5467,3.1733 l -6.08,34.44 c -0.3733,2.1333 1.0534,4.1733 3.1734,4.5467 0.24,0.04 0.4666,0.067 0.6933,0.067 1.8667,0 3.52,-1.3466 3.8533,-3.2533 l 6.08,-34.4267 c 0.1867,-1.04 -0.04,-2.08 -0.64,-2.9333 -0.6,-0.8533 -1.5066,-1.4267 -2.5333,-1.6133"
       style="fill:#aa7959;fill-opacity:1;fill-rule:nonzero;stroke:none;stroke-width:0.133333" /></g></svg>
