<?xml version="1.0" encoding="UTF-8" standalone="no"?>
<!-- Created with Inkscape (http://www.inkscape.org/) -->

<svg
   width="900"
   height="1500"
   viewBox="0 0 900 1500"
   version="1.1"
   id="svg1"
   sodipodi:docname="card.svg"
   inkscape:version="1.3 (0e150ed, 2023-07-21)"
   xmlns:inkscape="http://www.inkscape.org/namespaces/inkscape"
   xmlns:sodipodi="http://sodipodi.sourceforge.net/DTD/sodipodi-0.dtd"
   xmlns:xlink="http://www.w3.org/1999/xlink"
   xmlns="http://www.w3.org/2000/svg"
   xmlns:svg="http://www.w3.org/2000/svg">
  <sodipodi:namedview
     id="namedview1"
     pagecolor="#505050"
     bordercolor="#ffffff"
     borderopacity="1"
     inkscape:showpageshadow="false"
     inkscape:pageopacity="0"
     inkscape:pagecheckerboard="true"
     inkscape:deskcolor="#d1d1d1"
     inkscape:document-units="px"
     showgrid="true"
     showborder="true"
     labelstyle="default"
     inkscape:zoom="0.74664262"
     inkscape:cx="423.22792"
     inkscape:cy="585.95637"
     inkscape:window-width="1816"
     inkscape:window-height="1312"
     inkscape:window-x="2188"
     inkscape:window-y="25"
     inkscape:window-maximized="0"
     inkscape:current-layer="layer1">
    <inkscape:grid
       id="grid1"
       units="px"
       originx="450"
       originy="750"
       spacingx="2.6458305"
       spacingy="2.6458305"
       empcolor="#0099e5"
       empopacity="0.30196078"
       color="#0099e5"
       opacity="0.14901961"
       empspacing="10"
       dotted="false"
       gridanglex="30"
       gridanglez="30"
       visible="true"
       snapvisiblegridlinesonly="true" />
  </sodipodi:namedview>
  <defs
     id="defs1">
    <color-profile
       name="Adobe-RGB-1998"
       xlink:href="file:///System/Library/ColorSync/Profiles/AdobeRGB1998.icc"
       id="color-profile2" />
  </defs>
  <g
     inkscape:label="Layer 1"
     inkscape:groupmode="layer"
     id="layer1">
    <path
       style="fill:#d4aa00;stroke:none;stroke-width:0.967141"
       d="m 53.323718,589.56233 792.055802,-0.003 c 2.56824,-0.0422 2.61426,5.25977 0.007,5.30202 l -792.059885,-0.0243 c -2.410202,0 -2.373155,-5.27472 -0.0024,-5.27472 z"
       id="path2"
       sodipodi:nodetypes="ccccc" />
    <path
       id="path3"
       style="fill:#d4aa00;stroke:none;stroke-width:2.45439"
       transform="scale(1,-1)"
       d="m 137.76737,-591.24668 c 0,104.55706 58.33434,209.54026 156.1877,261.81879 97.85337,52.27854 214.31605,52.41881 312.16942,0.14027 97.85337,-52.27853 156.11422,-157.26371 156.11422,-261.82078 l 5.18248,-0.0465 c 0,104.55707 -60.81583,212.09166 -158.6692,264.37019 -97.85337,52.27854 -219.67697,52.54528 -317.53034,0.26674 -97.85336,-52.27853 -158.74797,-160.16438 -158.74797,-264.72144 z"
       sodipodi:nodetypes="cssccsscc" />
    <path
       style="fill:#d4aa00;stroke:none;stroke-width:0.967141"
       d="m 55.487809,913.22358 792.055811,0.003 c 2.56824,0.0422 2.61426,-5.25977 0.007,-5.30202 l -792.059894,0.0243 c -2.410202,0 -2.373155,5.27472 -0.0024,5.27472 z"
       id="path2-8"
       sodipodi:nodetypes="ccccc" />
    <path
       id="path3-2"
       style="fill:#d4aa00;stroke:none;stroke-width:2.45439"
       d="m 139.93147,911.53923 c 0,104.55707 58.33434,209.54027 156.1877,261.81877 97.85337,52.2785 214.31605,52.4188 312.16942,0.1403 97.85337,-52.2786 156.11422,-157.2637 156.11422,-261.82079 l 5.18248,-0.0465 c 0,104.55709 -60.81583,212.09159 -158.6692,264.37019 -97.85337,52.2785 -219.67697,52.5453 -317.53034,0.2667 -97.85336,-52.2785 -158.74797,-160.1643 -158.74797,-264.7214 z"
       sodipodi:nodetypes="cssccsscc" />
  </g>
</svg>
